<?xml version="1.0" encoding="UTF-8" ?>
<svg width="100%" height="100%" viewBox="0 0 320 80" xmlns="http://www.w3.org/2000/svg" xmlns:xlink="http://www.w3.org/1999/xlink">
	<circle cx="17.682" cy="61.388" r="8.32" style="fill:#fff;"/><circle cx="62.494" cy="61.388" r="8.32" style="fill:#e73843;"/><path d="M78.074,54.608l-21.265,-40.7c-1.735,-7.678 -8.609,-13.428 -16.801,-13.428c-7.966,0 -14.712,5.461 -16.672,12.817l-21.394,41.279c-2.088,3.919 -2.506,8.416 -1.188,12.656c1.317,4.24 4.176,7.742 8.095,9.83l0.931,0.482c2.377,1.252 5.076,1.927 7.742,1.927c6.2,0 11.853,-3.373 14.712,-8.834l6.521,-11.532l-3.051,-4.947l-7.453,14.391c-3.116,5.879 -10.472,8.127 -16.319,5.011l-0.931,-0.481c-5.879,-3.116 -8.127,-10.473 -5.011,-16.319l17.635,-34.115c0.868,2.955 2.602,7.324 6.007,14.006c3.213,6.296 6.361,11.628 6.489,11.853l3.919,6.618l3.919,-6.618c0.129,-0.225 3.277,-5.557 6.489,-11.853c3.341,-6.553 5.044,-10.858 5.943,-13.813l17.668,33.922c3.116,5.878 0.867,13.203 -5.011,16.319l-0.932,0.481c-5.879,3.116 -13.203,0.868 -16.319,-5.011l-7.292,-13.877l-2.409,4.561l5.654,11.436c2.891,5.461 8.545,8.834 14.712,8.834c2.699,0 5.365,-0.674 7.742,-1.927l0.932,-0.482c3.919,-2.088 6.778,-5.557 8.095,-9.83c1.349,-4.24 0.899,-8.737 -1.157,-12.656Zm-38.066,-49.567c7.003,0 12.689,5.686 12.689,12.689c0,1.831 -0.868,4.69 -2.185,7.87l-21.008,0c-1.285,-3.18 -2.185,-6.039 -2.185,-7.87c0.033,-7.003 5.686,-12.689 12.689,-12.689Zm0,41.118c0,0 -5.3,-8.962 -9.026,-17.154l18.085,0c-3.759,8.192 -9.059,17.154 -9.059,17.154Z" style="fill:#fff;fill-rule:nonzero;"/><path d="M97.986,55.561c0,0.976 0.781,1.756 1.756,1.756c0.878,0 1.512,-0.487 1.854,-1.317l3.561,-7.951l18.732,0l3.561,7.854c0.342,0.78 0.976,1.414 1.903,1.414c1.024,0 1.853,-0.829 1.853,-1.853c0,-0.293 -0.097,-0.634 -0.244,-0.976l-13.854,-30.244c-0.439,-1.074 -1.219,-1.708 -2.39,-1.708l-0.195,0c-1.22,0 -1.951,0.634 -2.439,1.708l-13.854,30.293c-0.195,0.39 -0.244,0.732 -0.244,1.024Zm8.683,-11.024l7.854,-17.464l7.854,17.464l-15.708,0Z" style="fill:#fff;fill-rule:nonzero;"/><path d="M138.572,55.122c0,1.073 0.878,1.952 1.903,1.952l9.951,0c10.732,0 18.147,-7.464 18.147,-17.074l0,-0.098c0,-9.61 -7.415,-16.976 -18.147,-16.976l-9.951,0c-1.025,0 -1.903,0.879 -1.903,1.952l0,30.244Zm3.854,-1.61l0,-27.024l8,0c8.634,0 14.147,5.951 14.147,13.512l0,0.098c0,7.561 -5.513,13.414 -14.147,13.414l-8,0Z" style="fill:#fff;fill-rule:nonzero;"/><path d="M176.29,54.049c0,1.707 1.317,3.025 3.024,3.025l9.708,0c10.732,0 18.146,-7.464 18.146,-17.074l0,-0.098c0,-9.61 -7.414,-16.976 -18.146,-16.976l-9.708,0c-1.707,0 -3.024,1.318 -3.024,3.025l0,28.098Zm6,-2.439l0,-23.22l6.732,0c7.17,0 11.854,4.927 11.854,11.61l0,0.098c0,6.683 -4.684,11.512 -11.854,11.512l-6.732,0Z" style="fill:#fff;fill-rule:nonzero;"/><path d="M230.73,57.659c10.488,0 17.903,-8.049 17.903,-17.659l0,-0.098c0,-9.61 -7.318,-17.561 -17.806,-17.561c-10.488,0 -17.902,8.049 -17.902,17.659l0,0.098c0,9.61 7.317,17.561 17.805,17.561Zm0.097,-5.561c-6.78,0 -11.61,-5.464 -11.61,-12.098l0,-0.098c0,-6.634 4.732,-12.049 11.513,-12.049c6.78,0 11.61,5.513 11.61,12.147l0,0.098c0,6.634 -4.732,12 -11.513,12Z" style="fill:#fff;fill-rule:nonzero;"/><path d="M271.755,57.659c5.512,0 9.171,-1.756 12.391,-4.586c0.536,-0.487 0.975,-1.219 0.975,-2.146c0,-1.512 -1.317,-2.78 -2.829,-2.78c-0.732,0 -1.366,0.292 -1.805,0.682c-2.488,2.098 -4.927,3.269 -8.537,3.269c-6.537,0 -11.268,-5.415 -11.268,-12.098l0,-0.098c0,-6.683 4.78,-12.049 11.268,-12.049c3.269,0 5.805,1.171 8.147,3.074c0.39,0.292 0.975,0.585 1.805,0.585c1.658,0 2.975,-1.268 2.975,-2.927c0,-1.073 -0.536,-1.902 -1.17,-2.39c-2.976,-2.293 -6.44,-3.854 -11.708,-3.854c-10.342,0 -17.61,7.951 -17.61,17.659l0,0.098c0,9.805 7.415,17.561 17.366,17.561Z" style="fill:#fff;fill-rule:nonzero;"/><path d="M291.902,54.342c0,1.658 1.317,2.975 3.024,2.975c1.659,0 2.976,-1.317 2.976,-2.975l0,-7.074l5.561,-5.366l10.976,14.001c0.634,0.829 1.366,1.414 2.537,1.414c1.707,0 3.024,-1.268 3.024,-2.926c0,-0.927 -0.341,-1.513 -0.829,-2.147l-11.513,-14.293l10.635,-10.244c0.683,-0.634 1.073,-1.317 1.073,-2.244c0,-1.463 -1.122,-2.78 -2.781,-2.78c-1.073,0 -1.805,0.39 -2.488,1.122l-16.195,16.293l0,-14.44c0,-1.658 -1.317,-2.975 -2.976,-2.975c-1.707,0 -3.024,1.317 -3.024,2.975l0,28.684Z" style="fill:#fff;fill-rule:nonzero;"/>
</svg>